<?xml version="1.0" standalone="no"?>
<!DOCTYPE svg PUBLIC "-//W3C//DTD SVG 20010904//EN"
 "http://www.w3.org/TR/2001/REC-SVG-20010904/DTD/svg10.dtd">
<svg version="1.0" xmlns="http://www.w3.org/2000/svg"
 width="320.000000pt" height="320.000000pt" viewBox="0 0 320.000000 320.000000"
 preserveAspectRatio="xMidYMid meet">
<metadata>
Created by potrace 1.14, written by Peter Selinger 2001-2017
</metadata>
<g transform="translate(0.000000,320.000000) scale(0.100000,-0.100000)"
fill="#000000" stroke="none">
<path d="M0 1600 l0 -1600 1600 0 1600 0 0 1600 0 1600 -1600 0 -1600 0 0
-1600z m2794 952 c4 -7 -103 -197 -363 -641 l-60 -104 19 -27 c29 -41 41 -106
29 -161 -18 -84 -101 -143 -200 -142 -37 0 -40 -2 -80 -74 -17 -30 -18 -37 -6
-47 7 -6 29 -57 47 -113 19 -56 36 -100 38 -98 3 2 16 50 31 107 l27 103 38 3
c62 5 67 0 52 -50 -8 -24 -21 -65 -29 -93 -8 -27 -27 -89 -42 -137 l-27 -88
-48 0 -47 0 -33 100 c-19 55 -36 97 -39 94 -3 -3 -19 -46 -36 -97 l-30 -92
-45 -3 c-33 -3 -47 1 -57 14 -7 10 -14 16 -16 13 -4 -4 -67 -112 -106 -182
-119 -210 -193 -337 -200 -341 -4 -3 -32 39 -63 92 -30 53 -95 166 -143 250
-74 130 -90 152 -111 152 l-24 0 0 185 0 185 100 0 100 0 0 -45 0 -45 -50 0
c-47 0 -50 -2 -50 -25 0 -23 3 -25 50 -25 l50 0 0 -45 0 -45 -50 0 c-47 0 -50
-2 -50 -25 0 -23 3 -25 50 -25 l50 0 0 -45 0 -45 -60 0 c-33 0 -60 -3 -60 -6
0 -15 255 -442 261 -438 4 2 71 114 149 249 79 135 147 245 152 245 9 0 4 28
-17 95 -12 37 -51 168 -62 208 -4 16 1 18 48 15 l53 -3 13 -55 c8 -30 20 -80
26 -110 7 -30 16 -50 20 -44 3 6 20 53 36 104 17 51 40 102 51 114 12 11 36
44 55 73 l33 52 -28 6 c-32 7 -84 59 -99 98 -17 45 -13 117 10 164 43 90 169
129 261 82 23 -12 44 -18 45 -13 2 5 62 110 134 234 72 124 147 254 167 290
20 36 51 90 69 120 l33 55 -1147 3 c-630 1 -1148 1 -1150 -1 -2 -3 230 -413
351 -619 15 -27 24 -49 19 -50 -4 0 27 -4 69 -8 91 -7 128 -29 142 -82 14 -56
-11 -115 -55 -130 -10 -3 1 -24 36 -71 28 -37 54 -65 59 -64 7 2 92 214 116
290 15 47 29 57 80 57 l48 0 28 -77 c15 -43 31 -82 36 -88 4 -5 8 -15 8 -23 0
-8 6 -28 14 -45 24 -53 46 -109 46 -118 0 -5 -22 -9 -49 -9 -45 0 -50 2 -61
30 -13 30 -14 31 -74 28 -55 -3 -62 -6 -74 -30 -12 -26 -17 -28 -78 -28 -35 0
-64 -3 -64 -6 0 -4 16 -33 35 -65 30 -49 41 -58 68 -61 l32 -3 0 -180 0 -180
-47 -3 -48 -3 0 75 0 76 -65 0 -65 0 0 -75 0 -75 -50 0 -50 0 2 183 3 182 48
3 47 3 0 -70 0 -71 65 0 65 0 0 74 c0 68 -3 81 -35 135 -33 56 -39 61 -70 61
-30 0 -37 6 -67 55 -18 30 -36 55 -40 55 -5 0 -8 -25 -8 -55 l0 -55 -47 0 -48
0 2 177 c1 150 4 178 17 183 12 4 -20 66 -145 280 -234 401 -243 418 -222 423
31 8 2352 7 2357 -1z m-1836 -282 c4 0 34 27 67 60 32 33 60 58 62 56 5 -5 9
-256 5 -256 -2 0 -35 30 -73 67 l-69 66 0 -69 0 -69 -67 67 -68 68 65 65 65
66 3 -61 c2 -33 6 -60 10 -60z m387 60 c33 -33 62 -60 66 -60 3 0 4 24 1 54
-2 29 0 56 5 59 5 3 38 -23 73 -58 l64 -65 -64 -65 c-35 -36 -68 -65 -73 -65
-5 0 -8 26 -7 58 1 31 1 61 1 65 -1 4 -31 -22 -67 -58 -36 -36 -67 -65 -70
-65 -2 0 -4 59 -4 130 0 72 4 130 8 130 4 0 34 -27 67 -60z m455 -70 c0 -71
-2 -130 -4 -130 -9 0 -121 122 -121 132 0 10 106 125 118 127 4 0 7 -57 7
-129z m140 -2 l0 -133 -67 67 -68 68 65 65 c35 36 66 65 67 65 2 0 3 -60 3
-132z m310 4 c0 -17 -115 -134 -124 -125 -8 8 -8 238 0 246 9 9 124 -103 124
-121z m87 -69 l-67 -68 0 135 0 135 67 -68 68 -67 -68 -67z m-605 -372 c111
-76 114 -223 7 -300 -40 -30 -46 -31 -141 -31 l-98 0 0 181 0 181 99 -4 c83
-3 104 -7 133 -27z m238 -151 l0 -180 -50 0 -50 0 0 173 c0 96 3 177 7 180 3
4 26 7 50 7 l43 0 0 -180z m-1498 -333 c21 -11 50 -38 65 -60 36 -52 38 -145
4 -200 -35 -57 -101 -91 -175 -91 -34 0 -72 6 -86 13 -47 25 -89 74 -106 123
-14 43 -14 53 0 101 14 48 35 75 89 117 43 32 147 31 209 -3z m358 -22 c0 -45
0 -45 -35 -45 l-35 0 0 -140 0 -140 -50 0 -50 0 0 140 0 140 -35 0 c-35 0 -35
0 -35 45 l0 45 120 0 120 0 0 -45z m941 8 c24 -24 32 -40 33 -71 1 -48 -18
-86 -50 -101 l-24 -11 55 -71 c30 -39 55 -73 55 -75 0 -2 -27 -4 -59 -4 l-60
0 -38 62 -38 62 -5 -60 -5 -59 -47 -3 -48 -3 0 187 0 186 100 -4 c97 -4 102
-5 131 -35z m895 -141 c35 -96 64 -178 64 -183 0 -13 -84 -11 -98 3 -7 7 -12
20 -12 29 0 22 -20 29 -84 29 -51 0 -53 -1 -62 -32 -9 -31 -12 -33 -62 -36
-29 -2 -52 -1 -52 2 0 8 60 169 75 203 8 17 15 35 15 41 0 5 11 35 25 66 l25
57 51 -3 51 -3 64 -173z m171 133 c15 -25 33 -45 38 -45 6 0 22 20 37 45 27
45 28 45 83 45 30 0 55 -3 55 -6 0 -3 -29 -47 -65 -99 l-65 -93 0 -86 0 -87
-47 3 -48 3 -5 95 -5 95 -58 82 c-31 44 -57 84 -57 87 0 3 24 6 54 6 53 0 55
-1 83 -45z"/>
<path d="M880 1730 c0 -39 2 -41 26 -38 57 7 57 69 0 76 -24 3 -26 1 -26 -38z"/>
<path d="M2155 1728 c-23 -27 -26 -39 -22 -72 17 -121 187 -108 187 14 0 56
-36 90 -96 90 -35 0 -47 -5 -69 -32z"/>
<path d="M1257 1679 c-20 -50 -16 -59 25 -59 27 0 30 3 24 25 -8 33 -25 75
-29 75 -2 0 -11 -19 -20 -41z"/>
<path d="M1600 1668 l0 -98 29 0 c34 0 81 40 82 72 4 76 -21 113 -77 120 l-34
4 0 -98z"/>
<path d="M324 1260 c-59 -24 -72 -104 -25 -151 39 -38 87 -39 130 -3 26 21 31
33 31 69 0 36 -5 48 -31 69 -31 26 -66 32 -105 16z"/>
<path d="M1640 1239 c0 -38 1 -40 28 -37 47 5 39 78 -9 78 -16 0 -19 -8 -19
-41z"/>
<path d="M2531 1193 c-8 -21 -16 -44 -18 -50 -4 -9 6 -13 32 -13 34 0 37 2 31
25 -8 31 -25 75 -29 75 -2 0 -9 -17 -16 -37z"/>
</g>
</svg>
